<svg width="20" height="21" viewBox="0 0 20 21" fill="none" xmlns="http://www.w3.org/2000/svg">
<path fill-rule="evenodd" clip-rule="evenodd" d="M10 20.5C15.5228 20.5 20 16.0228 20 10.5C20 4.97715 15.5228 0.5 10 0.5C4.47715 0.5 0 4.97715 0 10.5C0 16.0228 4.47715 20.5 10 20.5ZM15.1692 9.24309C15.5796 8.8735 15.6127 8.2412 15.2431 7.83081C14.8735 7.42041 14.2412 7.38733 13.8308 7.75691L8.93647 12.1645L6.15641 9.74559C5.73976 9.38307 5.10812 9.42694 4.74559 9.84359C4.38307 10.2602 4.42694 10.8919 4.84359 11.2544L8.29146 14.2544C8.67271 14.5861 9.24154 14.5813 9.61707 14.2431L15.1692 9.24309Z" fill="#15B34E"/>
</svg>
