<svg width="50" height="50" viewBox="0 0 50 50" fill="none" xmlns="http://www.w3.org/2000/svg">
<circle cx="25" cy="25" r="24" fill="white" stroke="#006DFF" stroke-width="2"/>
<path d="M24.9999 23.5512C26.1465 23.5512 27.2673 23.2112 28.2206 22.5742C29.1739 21.9373 29.917 21.0319 30.3557 19.9726C30.7945 18.9133 30.9093 17.7477 30.6856 16.6232C30.4619 15.4986 29.9098 14.4657 29.0991 13.655C28.2883 12.8442 27.2554 12.2921 26.1309 12.0684C25.0063 11.8447 23.8407 11.9595 22.7815 12.3983C21.7222 12.8371 20.8168 13.5801 20.1798 14.5334C19.5428 15.4868 19.2028 16.6076 19.2028 17.7541C19.2028 19.2916 19.8136 20.7661 20.9007 21.8533C21.9879 22.9405 23.4624 23.5512 24.9999 23.5512ZM33.6956 38.044C34.0799 38.044 34.4486 37.8913 34.7204 37.6195C34.9921 37.3477 35.1448 36.9791 35.1448 36.5947C35.1448 33.9041 34.076 31.3237 32.1735 29.4212C30.2709 27.5186 27.6905 26.4498 24.9999 26.4498C22.3093 26.4498 19.7289 27.5186 17.8264 29.4212C15.9238 31.3237 14.855 33.9041 14.855 36.5947C14.855 36.9791 15.0077 37.3477 15.2795 37.6195C15.5513 37.8913 15.9199 38.044 16.3043 38.044H33.6956Z" fill="#006DFF"/>
</svg>
