<svg width="20" height="11" viewBox="0 0 20 11" fill="none" xmlns="http://www.w3.org/2000/svg">
<rect width="20" height="10.2222" rx="2.22222" fill="#15B34E"/>
<path d="M3.47567 7.3335H4.39016V4.4624H4.40839L6.39537 7.3335H7.19138V2.94938H6.27688V5.79921H6.25865L4.27775 2.94938H3.47567V7.3335ZM9.33027 7.40034C10.26 7.40034 10.7096 6.85042 10.8099 6.37039L10.819 6.33697H10.0047L9.99867 6.3552C9.93487 6.53749 9.71308 6.73801 9.3485 6.73801C8.89581 6.73801 8.61325 6.43419 8.60414 5.91466H10.8463V5.64122C10.8463 4.65685 10.2478 4.00971 9.29381 4.00971C8.33982 4.00971 7.72914 4.67204 7.72914 5.70806V5.7111C7.72914 6.7532 8.33374 7.40034 9.33027 7.40034ZM9.309 4.67204C9.67662 4.67204 9.94094 4.90598 9.99563 5.35563H8.61325C8.67098 4.91509 8.94442 4.67204 9.309 4.67204ZM11.9218 7.3335H12.8546L13.4409 5.03054H13.4592L14.0486 7.3335H14.9935L15.8563 4.07655H14.9813L14.4861 6.49192H14.4679L13.8876 4.07655H13.0369L12.4596 6.49192H12.4414L11.9492 4.07655H11.056L11.9218 7.3335ZM16.5156 5.85997H17.2812L17.3541 2.94938H16.4427L16.5156 5.85997ZM16.8984 7.36995C17.1749 7.36995 17.3936 7.16032 17.3936 6.89296C17.3936 6.6256 17.1749 6.41596 16.8984 6.41596C16.6219 6.41596 16.4032 6.6256 16.4032 6.89296C16.4032 7.16032 16.6219 7.36995 16.8984 7.36995Z" fill="white"/>
</svg>
