<svg width="15" height="19" viewBox="0 0 15 19" fill="none" xmlns="http://www.w3.org/2000/svg">
<path d="M7.49998 8.45833C8.32407 8.45833 9.12965 8.21396 9.81486 7.75612C10.5001 7.29829 11.0341 6.64754 11.3495 5.88618C11.6648 5.12482 11.7474 4.28705 11.5866 3.47879C11.4258 2.67054 11.029 1.92811 10.4463 1.34539C9.86354 0.762671 9.12111 0.365835 8.31286 0.205063C7.5046 0.0442915 6.66682 0.126805 5.90547 0.44217C5.14411 0.757536 4.49336 1.29159 4.03552 1.97679C3.57768 2.662 3.33331 3.46758 3.33331 4.29167C3.33331 5.39674 3.7723 6.45655 4.5537 7.23795C5.3351 8.01935 6.39491 8.45833 7.49998 8.45833ZM13.75 18.875C14.0262 18.875 14.2912 18.7653 14.4866 18.5699C14.6819 18.3746 14.7916 18.1096 14.7916 17.8333C14.7916 15.8995 14.0234 14.0448 12.656 12.6773C11.2885 11.3099 9.43385 10.5417 7.49998 10.5417C5.56611 10.5417 3.71145 11.3099 2.34399 12.6773C0.97654 14.0448 0.208313 15.8995 0.208313 17.8333C0.208313 18.1096 0.31806 18.3746 0.51341 18.5699C0.708761 18.7653 0.973713 18.875 1.24998 18.875H13.75Z" fill="#6B6B6B"/>
</svg>
