<svg width="15" height="19" viewBox="0 0 15 19" fill="none" xmlns="http://www.w3.org/2000/svg">
<path d="M7.50004 8.45833C8.32413 8.45833 9.12971 8.21396 9.81492 7.75612C10.5001 7.29829 11.0342 6.64754 11.3495 5.88618C11.6649 5.12482 11.7474 4.28705 11.5866 3.47879C11.4259 2.67054 11.029 1.92811 10.4463 1.34539C9.8636 0.762671 9.12117 0.365835 8.31292 0.205063C7.50466 0.0442915 6.66689 0.126805 5.90553 0.44217C5.14417 0.757536 4.49342 1.29159 4.03558 1.97679C3.57775 2.662 3.33337 3.46758 3.33337 4.29167C3.33337 5.39674 3.77236 6.45655 4.55376 7.23795C5.33516 8.01935 6.39497 8.45833 7.50004 8.45833ZM13.75 18.875C14.0263 18.875 14.2913 18.7653 14.4866 18.5699C14.682 18.3746 14.7917 18.1096 14.7917 17.8333C14.7917 15.8995 14.0235 14.0448 12.656 12.6773C11.2886 11.3099 9.43391 10.5417 7.50004 10.5417C5.56617 10.5417 3.71151 11.3099 2.34405 12.6773C0.976601 14.0448 0.208374 15.8995 0.208374 17.8333C0.208374 18.1096 0.318121 18.3746 0.513471 18.5699C0.708822 18.7653 0.973774 18.875 1.25004 18.875H13.75Z" fill="#006DFF"/>
</svg>
